<svg width="0" height="0" class="hidden">
  <symbol fill="none" xmlns="http://www.w3.org/2000/svg" viewBox="0 0 24 24" id="eye">
    <path d="M15.75 12C15.75 12.9946 15.3549 13.9484 14.6517 14.6517C13.9484 15.3549 12.9946 15.75 12 15.75C11.0054 15.75 10.0516 15.3549 9.34835 14.6517C8.64509 13.9484 8.25 12.9946 8.25 12C8.25 11.0054 8.64509 10.0516 9.34835 9.34835C10.0516 8.64509 11.0054 8.25 12 8.25C12.9946 8.25 13.9484 8.64509 14.6517 9.34835C15.3549 10.0516 15.75 11.0054 15.75 12Z" fill="black"></path>
    <path fill-rule="evenodd" clip-rule="evenodd" d="M0 12C0 12 4.5 3.75 12 3.75C19.5 3.75 24 12 24 12C24 12 19.5 20.25 12 20.25C4.5 20.25 0 12 0 12ZM12 17.25C13.3924 17.25 14.7277 16.6969 15.7123 15.7123C16.6969 14.7277 17.25 13.3924 17.25 12C17.25 10.6076 16.6969 9.27226 15.7123 8.28769C14.7277 7.30312 13.3924 6.75 12 6.75C10.6076 6.75 9.27226 7.30312 8.28769 8.28769C7.30312 9.27226 6.75 10.6076 6.75 12C6.75 13.3924 7.30312 14.7277 8.28769 15.7123C9.27226 16.6969 10.6076 17.25 12 17.25Z" fill="black"></path>
  </symbol>
  <symbol fill="none" xmlns="http://www.w3.org/2000/svg" viewBox="0 0 24 24" id="eye-close">
    <path d="M16.185 19.368L13.764 16.9455C12.8278 17.2802 11.8157 17.3422 10.8456 17.1243C9.87554 16.9063 8.98729 16.4173 8.28423 15.7143C7.58117 15.0112 7.09221 14.123 6.87424 13.1529C6.65628 12.1828 6.71827 11.1707 7.053 10.2345L3.963 7.1445C1.407 9.417 0 12 0 12C0 12 4.5 20.25 12 20.25C13.4406 20.245 14.8649 19.9448 16.185 19.368ZM7.815 4.632C9.13508 4.05514 10.5594 3.75496 12 3.75C19.5 3.75 24 12 24 12C24 12 22.5915 14.5815 20.0385 16.857L16.9455 13.764C17.2802 12.8278 17.3422 11.8157 17.1243 10.8456C16.9063 9.87554 16.4173 8.98729 15.7143 8.28423C15.0112 7.58117 14.123 7.09221 13.1529 6.87424C12.1828 6.65628 11.1707 6.71827 10.2345 7.053L7.815 4.6335V4.632Z" fill="black"></path>
    <path d="M8.28783 11.469C8.20532 12.0455 8.2582 12.6332 8.44228 13.1857C8.62636 13.7382 8.93657 14.2402 9.34835 14.652C9.76013 15.0638 10.2621 15.374 10.8146 15.5581C11.3671 15.7421 11.9549 15.795 12.5313 15.7125L8.28633 11.469H8.28783ZM15.7128 12.531L11.4693 8.286C12.0458 8.20349 12.6336 8.25637 13.186 8.44045C13.7385 8.62452 14.2405 8.93474 14.6523 9.34652C15.0641 9.7583 15.3743 10.2603 15.5584 10.8128C15.7425 11.3653 15.7953 11.953 15.7128 12.5295V12.531Z" fill="black"></path>
    <path fill-rule="evenodd" clip-rule="evenodd" d="M20.4697 21.531L2.46973 3.53099L3.53173 2.46899L21.5317 20.469L20.4697 21.531Z" fill="black"></path>
  </symbol>
  <symbol fill="none" xmlns="http://www.w3.org/2000/svg" viewBox="0 0 14 14" id="calendar">
    <g clip-path="url(#clip0_674_1657)">
      <path fill-rule="evenodd" clip-rule="evenodd" d="M3.0625 0C3.17853 0 3.28981 0.0460936 3.37186 0.128141C3.45391 0.210188 3.5 0.321468 3.5 0.4375V0.875H10.5V0.4375C10.5 0.321468 10.5461 0.210188 10.6281 0.128141C10.7102 0.0460936 10.8215 0 10.9375 0C11.0535 0 11.1648 0.0460936 11.2469 0.128141C11.3289 0.210188 11.375 0.321468 11.375 0.4375V0.875H12.25C12.7141 0.875 13.1592 1.05937 13.4874 1.38756C13.8156 1.71575 14 2.16087 14 2.625V12.25C14 12.7141 13.8156 13.1592 13.4874 13.4874C13.1592 13.8156 12.7141 14 12.25 14H1.75C1.28587 14 0.840752 13.8156 0.512563 13.4874C0.184375 13.1592 0 12.7141 0 12.25V2.625C0 2.16087 0.184375 1.71575 0.512563 1.38756C0.840752 1.05937 1.28587 0.875 1.75 0.875H2.625V0.4375C2.625 0.321468 2.67109 0.210188 2.75314 0.128141C2.83519 0.0460936 2.94647 0 3.0625 0V0ZM1.75 3.0625C1.75 2.821 1.9635 2.625 2.22688 2.625H11.7731C12.0356 2.625 12.25 2.821 12.25 3.0625V3.9375C12.25 4.179 12.0365 4.375 11.7723 4.375H2.22688C1.96438 4.375 1.75 4.179 1.75 3.9375V3.0625ZM9.49725 7.74725C9.5794 7.6651 9.62555 7.55368 9.62555 7.4375C9.62555 7.32132 9.5794 7.2099 9.49725 7.12775C9.4151 7.0456 9.30368 6.99945 9.1875 6.99945C9.07132 6.99945 8.9599 7.0456 8.87775 7.12775L6.5625 9.44388L5.55975 8.44025C5.51907 8.39957 5.47078 8.36731 5.41764 8.34529C5.36449 8.32328 5.30753 8.31195 5.25 8.31195C5.19247 8.31195 5.13551 8.32328 5.08236 8.34529C5.02922 8.36731 4.98093 8.39957 4.94025 8.44025C4.89957 8.48093 4.86731 8.52922 4.84529 8.58236C4.82328 8.63551 4.81195 8.69247 4.81195 8.75C4.81195 8.80753 4.82328 8.86449 4.84529 8.91764C4.86731 8.97078 4.89957 9.01907 4.94025 9.05975L6.25275 10.3723C6.29339 10.413 6.34167 10.4453 6.39482 10.4674C6.44797 10.4894 6.50495 10.5008 6.5625 10.5008C6.62005 10.5008 6.67703 10.4894 6.73018 10.4674C6.78333 10.4453 6.83161 10.413 6.87225 10.3723L9.49725 7.74725V7.74725Z" fill="#808080"></path>
    </g>
    <defs>
      <clipPath id="clip0_674_1657">
        <rect width="14" height="14" fill="white"></rect>
      </clipPath>
    </defs>
  </symbol>
</svg>